<!DOCTYPE svg PUBLIC "-//W3C//DTD SVG 1.1//EN" "http://www.w3.org/Graphics/SVG/1.1/DTD/svg11.dtd">
<!-- Uploaded to: SVG Repo, www.svgrepo.com, Transformed by: SVG Repo Mixer Tools -->
<svg fill="#c8a96a" version="1.1" id="Layer_1" xmlns="http://www.w3.org/2000/svg" xmlns:xlink="http://www.w3.org/1999/xlink" viewBox="-25.6 -25.6 563.20 563.20" xml:space="preserve" width="800px" height="800px">
<g id="SVGRepo_bgCarrier" stroke-width="0"/>
<g id="SVGRepo_tracerCarrier" stroke-linecap="round" stroke-linejoin="round"/>
<g id="SVGRepo_iconCarrier"> <g> <g> <path d="M496.272,48.341c-5.727-5.727-12.505-10.003-19.968-12.647c-2.643-7.463-6.919-14.24-12.647-19.968 c-20.968-20.969-55.086-20.968-76.056,0c-16.106,16.105-19.893,40.465-10.855,60.389l-77.235,77.235l-13.036-13.036 l-11.085,11.085c-3.531,3.53-17.072,10.448-43.613,18.326c-20.624,6.121-39.305,9.946-42.692,10.228 c-0.412,0.025-1.805,0.045-2.924,0.061c-11.38,0.159-41.609,0.582-74.901,12.479c-42.697,15.258-74.453,43.207-94.385,83.072 C-4.07,317.46-5.547,363.512,12.609,408.74c13.49,33.605,33.131,54.976,33.96,55.87l0.821,0.821 c0.893,0.83,22.265,20.469,55.87,33.96C124.215,507.803,145.341,512,166.154,512c24.109-0.001,47.797-5.635,70.282-16.877 c39.865-19.933,67.815-51.689,83.072-94.385c11.897-33.292,12.319-63.522,12.479-74.901c0.016-1.119,0.034-2.512,0.057-2.878 c0.285-3.433,4.11-22.114,10.231-42.738c7.878-26.541,14.796-40.081,18.326-43.613l11.085-11.084l-13.036-13.036l77.235-77.235 c19.924,9.039,44.282,5.25,60.39-10.855C517.242,103.428,517.242,69.309,496.272,48.341z M300.786,320.546 c-0.097,1.257-0.117,2.687-0.147,4.85c-1.196,85.374-43.198,124.171-78.224,141.684c-33.817,16.91-69.655,18.12-106.516,3.597 c-26.105-10.285-43.838-25.286-46.754-27.845c-5.431-6.166-63.399-74.905-24.227-153.25 c17.513-35.025,56.31-77.029,141.683-78.223c2.164-0.03,3.594-0.05,4.851-0.147c7.014-0.539,63.305-11.971,93.147-28.439 l44.625,44.625C312.756,257.241,301.326,313.533,300.786,320.546z M474.105,102.229c-8.206,8.206-21.544,8.748-30.368,1.232 l-11.017-9.383l-96.24,96.24l-14.799-14.799l96.24-96.24l-9.383-11.016c-7.515-8.822-6.974-22.161,1.232-30.367 c8.746-8.745,22.975-8.744,31.719-0.001c3.498,3.499,5.696,7.933,6.359,12.825l1.601,11.831l11.831,1.601 c4.892,0.661,9.327,2.86,12.825,6.358C482.85,79.255,482.85,93.484,474.105,102.229z"/> </g> </g> <g> <g> <rect x="67.311" y="356.975" transform="matrix(0.7071 -0.7071 0.7071 0.7071 -238.1154 165.2147)" width="26.126" height="26.126"/> </g> </g> <g> <g> <rect x="123.766" y="326.182" transform="matrix(0.7071 -0.7071 0.7071 0.7071 -199.806 196.1147)" width="26.126" height="26.126"/> </g> </g> <g> <g> <rect x="74.503" y="300.776" transform="matrix(0.7071 -0.7071 0.7071 0.7071 -196.2704 153.8394)" width="26.126" height="26.126"/> </g> </g> </g>
</svg>