<!DOCTYPE svg PUBLIC "-//W3C//DTD SVG 1.1//EN" "http://www.w3.org/Graphics/SVG/1.1/DTD/svg11.dtd">
<!-- Uploaded to: SVG Repo, www.svgrepo.com, Transformed by: SVG Repo Mixer Tools -->
<svg width="800px" height="800px" viewBox="0 0 64 64" version="1.1" xmlns="http://www.w3.org/2000/svg" xmlns:xlink="http://www.w3.org/1999/xlink" xmlns:sketch="http://www.bohemiancoding.com/sketch/ns" fill="#c8a96a" transform="matrix(-1, 0, 0, 1, 0, 0)">
<g id="SVGRepo_bgCarrier" stroke-width="0"/>
<g id="SVGRepo_tracerCarrier" stroke-linecap="round" stroke-linejoin="round"/>
<g id="SVGRepo_iconCarrier"> <title>Chicken-leg</title> <desc>Created with Sketch.</desc> <defs> </defs> <g id="Page-1" stroke="none" stroke-width="1" fill="none" fill-rule="evenodd" sketch:type="MSPage"> <g id="Chicken-leg" sketch:type="MSLayerGroup" transform="translate(1.000000, 1.000000)" stroke="#c8a96a" stroke-width="2"> <path d="M36.1,40.2 C36.1,40.2 42.5,46.6 44.3,48.4 C46.1,50.2 45.5,50.9 45.1,51.2 C43.1,53.2 44.4,57.8 46.4,59.8 C48.4,61.8 51.6,61.8 53.6,59.8 C54.8,58.6 55.3,56.9 55,55.3 C56.6,55.6 58.3,55.1 59.6,53.9 C61.6,51.9 61.6,48.6 59.6,46.6 C57.6,44.6 53,43.3 51,45.3 C50.7,45.6 50,46.2 48.5,44.7 C47,43.2 40,36.2 40,36.2" id="Shape" sketch:type="MSShapeGroup"> </path> <path d="M5.2,5.2 C-0.7,11.1 -3.1,18.2 6.4,27.6 C14.5,35.7 27.8,37.7 36.6,42 L35.2,35.4 L41.8,36.8 C35.7,26.9 35.9,14.7 27.6,6.4 C18.1,-3.1 11,-0.7 5.2,5.2 L5.2,5.2 Z" id="Shape" sketch:type="MSShapeGroup"> </path> <path d="M11,6 C11,6 16.1,0.3 25.5,9.7" id="Shape" sketch:type="MSShapeGroup"> </path> </g> </g> </g>
</svg>