<!DOCTYPE svg PUBLIC "-//W3C//DTD SVG 1.1//EN" "http://www.w3.org/Graphics/SVG/1.1/DTD/svg11.dtd">
<!-- Uploaded to: SVG Repo, www.svgrepo.com, Transformed by: SVG Repo Mixer Tools -->
<svg fill="#c8a96a" height="800px" width="800px" version="1.1" id="Layer_1" xmlns="http://www.w3.org/2000/svg" xmlns:xlink="http://www.w3.org/1999/xlink" viewBox="-9.6 -9.6 499.20 499.20" xml:space="preserve">
<g id="SVGRepo_bgCarrier" stroke-width="0"/>
<g id="SVGRepo_tracerCarrier" stroke-linecap="round" stroke-linejoin="round"/>
<g id="SVGRepo_iconCarrier"> <g> <g> <g> <path d="M140.002,288.003c-4.416,0-8,3.584-8,8v16c0,4.416,3.584,8,8,8s8-3.584,8-8v-16 C148.002,291.587,144.418,288.003,140.002,288.003z"/> <path d="M140.002,336.003c-4.416,0-8,3.584-8,8v8c0,4.416,3.584,8,8,8s8-3.584,8-8v-8 C148.002,339.587,144.418,336.003,140.002,336.003z"/> <path d="M188.002,312.003c-4.416,0-8,3.584-8,8v8c0,4.416,3.584,8,8,8s8-3.584,8-8v-8 C196.002,315.587,192.418,312.003,188.002,312.003z"/> <path d="M236.002,288.003c-4.416,0-8,3.584-8,8v16c0,4.416,3.584,8,8,8s8-3.584,8-8v-16 C244.002,291.587,240.418,288.003,236.002,288.003z"/> <path d="M236.002,336.003c-4.416,0-8,3.584-8,8v8c0,4.416,3.584,8,8,8s8-3.584,8-8v-8 C244.002,339.587,240.418,336.003,236.002,336.003z"/> <path d="M284.002,312.003c-4.424,0-8,3.584-8,8v8c0,4.416,3.576,8,8,8s8-3.584,8-8v-8 C292.002,315.587,288.426,312.003,284.002,312.003z"/> <path d="M172.002,200.003c-4.416,0-8,3.584-8,8v8c0,4.416,3.584,8,8,8s8-3.584,8-8v-8 C180.002,203.587,176.418,200.003,172.002,200.003z"/> <path d="M460.002,144.003c0-16.632-23.632-25.336-46.992-25.336c-2.72,0-5.432,0.128-8.12,0.368 c1.968-1.808,3.904-3.712,5.768-5.736c15.808-17.192,25.408-40.488,13.168-51.752c-12.256-11.256-35.32,0.28-51.128,17.464 l-0.672,0.008c0-0.008,0-0.008,0-0.016c-0.024-23.352-7.392-47-24.024-47c-16.632,0-24,23.648-24,47c0,0.008,0,0.008,0,0.016 l-0.672-0.008c-15.816-17.192-38.544-28.696-50.792-17.456c-12.24,11.256-2.808,34.552,13,51.744 c1.864,2.024,3.712,3.936,5.68,5.736c-2.688-0.232-5.448-0.368-8.168-0.368c-23.36,0-47.024,8.704-47.024,25.336 c0,16.632,23.632,25.336,46.992,25.336c2.72,0,5.432-0.128,8.12-0.368c-1.968,1.808-3.904,3.712-5.768,5.736 c-15.808,17.192-25.408,40.488-13.168,51.752c3.376,3.096,7.52,4.464,12.088,4.464c12.008,0,27.592-9.472,39.04-21.928 l0.672-0.008c0,0.008,0,0.008,0,0.016c0,12.336,1.784,24.72,6.528,33.696c-5.384-1.592-12.192-2.696-20.616-2.696 c-17.536,0-26.912,4.72-35.024,8.88c-7.456,3.816-13.976,7.12-27.648,7.12c-13.664,0-20.136-3.296-27.584-7.12 c-8.112-4.16-17.328-8.88-34.856-8.88c-17.528,0-26.744,4.72-34.864,8.88c-7.448,3.824-13.88,7.12-27.552,7.12 c-13.68,0-20.128-3.296-27.608-7.112c-1.216-0.616-2.48-1.256-3.784-1.888c-0.44-0.216-0.904-0.424-1.36-0.632 c-1.008-0.472-2.056-0.928-3.144-1.384c-0.528-0.224-1.056-0.432-1.608-0.648c-1.248-0.48-2.568-0.936-3.952-1.36 c-0.416-0.128-0.792-0.272-1.216-0.392c-0.128-0.032-0.232-0.08-0.36-0.112l-3.08-24.632l36.16-57.84h3.568h32h16v16 c0,4.416,3.584,8,8,8s8-3.584,8-8v-16h40c4.416,0,8-3.584,8-8s-3.584-8-8-8h-8v-41.136c13.76-3.576,24-16,24-30.864 c0-7.976-3.04-15.192-7.888-20.8l5.544-5.544c3.128-3.128,3.128-8.184,0-11.312s-8.184-3.128-11.312,0l-7.632,7.632 c-0.888-0.312-1.792-0.6-2.712-0.84v-9.136c0-4.416-3.584-8-8-8s-8,3.584-8,8v9.136c-0.92,0.24-1.824,0.528-2.712,0.84 l-7.632-7.632c-3.128-3.128-8.184-3.128-11.312,0s-3.128,8.184,0,11.312l5.544,5.544c-4.848,5.608-7.888,12.824-7.888,20.8 c0,14.864,10.24,27.288,24,30.864v41.136h-40v-88c0-11.24-7.648-20.856-17.928-23.192L38.482,0.395 c-2.432-0.8-5.104-0.368-7.176,1.136c-2.072,1.504-3.304,3.912-3.304,6.472v32c0,3.376,2.12,6.384,5.296,7.528l74.704,26.824 v69.648c-2.76,0-5.32,1.424-6.784,3.76l-40,64c-0.976,1.56-1.384,3.408-1.152,5.232l4.128,33.008l17.944,143.568l4.672,37.376 c1.624,12.992,7.688,24.456,16.496,33.056H68.002c-4.416,0-8,3.584-8,8c0,4.416,3.584,8,8,8h72c0.16,0,0.288-0.08,0.448-0.088 c0.64,0.024,1.272,0.088,1.92,0.088h139.256c2.56,0,5.072-0.232,7.552-0.568c0.888,0.336,1.824,0.568,2.824,0.568h72 c4.424,0,8-3.584,8-8c0-4.416-3.576-8-8-8h-43.304c8.808-8.6,14.872-20.064,16.496-33.056l4.304-34.48l16.88-135.024 c0.032-0.256-0.04-0.496-0.032-0.752c0.016-0.4-0.008-0.768-0.048-1.16c-0.072-0.6-0.208-1.152-0.408-1.712 c-0.12-0.352-0.232-0.688-0.4-1.016c-0.296-0.568-0.672-1.056-1.096-1.536c-0.216-0.248-0.384-0.512-0.632-0.736 c-0.12-0.112-0.912-0.216-1.04-0.32c11.8-5.872,17.28-25.616,17.28-45.208c0-0.008,0-0.008,0-0.016c0,0,0.672,0.008,0.68,0.008 c11.456,12.456,26.696,21.928,38.704,21.928c4.568,0,8.888-1.368,12.264-4.472c12.24-11.256,2.728-34.552-13.08-51.744 c-1.864-2.024-3.752-3.936-5.72-5.736c2.688,0.232,5.424,0.368,8.144,0.368C436.354,169.339,460.002,160.635,460.002,144.003z M188.002,72.003c0-8.824,7.176-16,16-16c8.824,0,16,7.176,16,16s-7.176,16-16,16C195.178,88.003,188.002,80.827,188.002,72.003z M56.482,38.859l-12.48-4.488v-15.36l21.128,6.872L56.482,38.859z M86.61,49.675l-14.608-5.248l8.936-13.408l14.88,4.84 L86.61,49.675z M102.122,55.243l9.496-14.248l22.176,7.208c3.656,0.848,6.208,4.056,6.208,7.8v88h-16V68.731 c0-3.376-2.12-6.384-5.296-7.528L102.122,55.243z M385.13,89.835c11.928-12.984,22.736-16.768,26.576-16.768 c0.592,0,1.024,0.088,1.256,0.248c1.376,1.728-0.344,14.192-14.104,29.152c-13.76,14.984-26.08,17.704-27.832,16.52 C369.65,117.259,371.37,104.795,385.13,89.835z M347.986,48.003c2.176,0.344,9.352,10.688,9.352,31s-7.168,30.656-9.32,31 c-2.176-0.344-9.352-10.688-9.352-31S345.834,48.347,347.986,48.003z M283.002,153.339c-20.328,0-30.656-7.168-31-9.32 c0.344-2.176,10.672-9.344,31-9.344s30.656,7.168,31,9.32C313.658,146.163,303.33,153.339,283.002,153.339z M310.874,198.171 c-13.776,14.984-26.088,17.728-27.832,16.52c-1.376-1.728,0.344-14.192,14.104-29.152c11.92-12.976,22.736-16.768,26.576-16.768 c0.592,0,1.024,0.088,1.256,0.248C326.354,170.747,324.634,183.211,310.874,198.171z M325.002,118.963 c-1.768,1.232-14.096-1.512-27.856-16.496c-13.76-14.96-15.48-27.424-14.136-29.128c0.248-0.168,0.688-0.264,1.296-0.264 c3.888,0,14.664,3.808,26.568,16.752C324.634,104.795,326.354,117.259,325.002,118.963z M321.322,428.963 c-2.496,19.976-19.568,35.04-39.696,35.04h-25.2l2.016-1.344c3.68-2.448,4.672-7.416,2.216-11.096s-7.416-4.68-11.096-2.216 l-21.984,14.656h-7.576v-16c0-4.416-3.584-8-8-8s-8,3.584-8,8v16h-5.576l-21.984-14.656c-3.68-2.464-8.64-1.464-11.096,2.216 c-2.448,3.672-1.456,8.648,2.216,11.096l2.016,1.344H142.37c-20.128,0-37.192-15.064-39.688-35.04l-3.968-31.768 c0.36-0.176,0.712-0.344,1.072-0.512c0.264-0.128,0.536-0.248,0.808-0.376c0.776-0.352,1.568-0.68,2.376-1 c0.104-0.04,0.208-0.088,0.312-0.128c0.92-0.352,1.872-0.688,2.856-0.992c0.24-0.072,0.496-0.136,0.744-0.208 c0.752-0.216,1.528-0.424,2.336-0.616c0.368-0.088,0.76-0.16,1.144-0.24c0.744-0.152,1.512-0.288,2.312-0.416 c0.432-0.064,0.872-0.136,1.32-0.192c0.856-0.112,1.768-0.2,2.704-0.272c0.424-0.032,0.832-0.08,1.28-0.104 c1.392-0.08,2.856-0.136,4.448-0.136c13.672,0,20.112,3.304,27.56,7.12c8.12,4.16,17.328,8.88,34.856,8.88 c17.528,0,26.728-4.72,34.84-8.88c7.448-3.824,13.872-7.12,27.536-7.12s20.096,3.296,27.544,7.12 c8.128,4.16,17.336,8.88,34.864,8.88c2.616,0,5.096-0.104,7.488-0.312c0.648-0.056,1.232-0.184,1.864-0.256 c1.712-0.192,3.424-0.384,5.048-0.704c0.024,0,0.04-0.008,0.064-0.008L321.322,428.963z M326.218,389.683 c-1.128,0.36-2.336,0.712-3.672,1.016c-0.344,0.08-0.736,0.136-1.096,0.208c-1.208,0.248-2.528,0.448-3.936,0.624 c-0.52,0.064-1.04,0.128-1.592,0.176c-1.92,0.168-3.96,0.296-6.296,0.296c-13.672,0-20.104-3.304-27.552-7.12 c-8.12-4.16-17.312-8.88-34.848-8.88c-17.528,0-26.728,4.72-34.84,8.88c-7.448,3.824-13.88,7.12-27.544,7.12 c-13.672,0-20.112-3.304-27.56-7.12c-7.104-3.64-15.04-7.712-28.664-8.672c-1.944-0.136-4-0.208-6.192-0.208 c-2.616,0-4.992,0.136-7.256,0.328c-0.688,0.056-1.328,0.144-1.992,0.216c-1.576,0.176-3.08,0.384-4.496,0.64 c-0.608,0.112-1.216,0.216-1.792,0.336c-1.608,0.336-3.136,0.712-4.568,1.136c-0.224,0.064-0.48,0.12-0.704,0.184 c-1.64,0.504-3.168,1.056-4.624,1.632c-0.112,0.04-0.24,0.08-0.352,0.128l-15.04-120.312c0.296,0.136,0.608,0.272,0.904,0.408 c1.656,0.768,3.288,1.576,4.992,2.44c8.136,4.16,17.352,8.864,34.88,8.864c17.528,0,26.728-4.72,34.848-8.88 c7.448-3.824,13.88-7.12,27.544-7.12s20.088,3.296,27.536,7.12c8.128,4.16,17.328,8.88,34.856,8.88 c17.536,0,26.744-4.72,34.856-8.88c7.456-3.816,13.888-7.12,27.56-7.12c13.688,0,20.136,3.304,27.592,7.12 c1.496,0.76,3,1.536,4.592,2.296L326.218,389.683z M348.018,240.003c-2.176-0.344-9.352-10.688-9.352-31s7.168-30.656,9.32-31 c2.176,0.344,9.352,10.688,9.352,31S350.17,239.659,348.018,240.003z M348.002,162.003c-9.92,0-18-8.072-18-18s8.08-18,18-18 c9.92,0,18,8.072,18,18S357.922,162.003,348.002,162.003z M412.994,214.667c-1.848,1.24-14.096-1.512-27.864-16.496 c-13.76-14.96-15.48-27.424-14.128-29.128c0.24-0.168,0.68-0.256,1.288-0.256c3.88,0,14.672,3.808,26.568,16.752 C412.618,200.499,414.338,212.963,412.994,214.667z M382.002,144.011c0.344-2.168,10.672-9.344,31-9.344s30.656,7.168,31,9.32 c-0.344,2.176-10.672,9.344-31,9.344S382.346,146.163,382.002,144.011z"/> <path d="M36.002,464.003h-8c-4.416,0-8,3.584-8,8c0,4.416,3.584,8,8,8h8c4.416,0,8-3.584,8-8 C44.002,467.587,40.418,464.003,36.002,464.003z"/> <path d="M404.002,464.003h-8c-4.424,0-8,3.584-8,8c0,4.416,3.576,8,8,8h8c4.424,0,8-3.584,8-8 C412.002,467.587,408.426,464.003,404.002,464.003z"/> </g> </g> </g> </g>
</svg>