<!DOCTYPE svg PUBLIC "-//W3C//DTD SVG 1.1//EN" "http://www.w3.org/Graphics/SVG/1.1/DTD/svg11.dtd">
<!-- Uploaded to: SVG Repo, www.svgrepo.com, Transformed by: SVG Repo Mixer Tools -->
<svg fill="#c8a96a" height="800px" width="800px" version="1.1" id="Layer_1" xmlns="http://www.w3.org/2000/svg" xmlns:xlink="http://www.w3.org/1999/xlink" viewBox="-15.36 -15.36 542.72 542.72" xml:space="preserve">
<g id="SVGRepo_bgCarrier" stroke-width="0"/>
<g id="SVGRepo_tracerCarrier" stroke-linecap="round" stroke-linejoin="round"/>
<g id="SVGRepo_iconCarrier"> <g> <g> <path d="M493.515,424.022H341.774c6.719-4.049,13.071-8.782,18.947-14.175c3.439-3.156,3.668-8.502,0.512-11.941 c-3.155-3.438-8.501-3.67-11.941-0.512c-18.711,17.17-43.017,26.628-68.441,26.628h-74.954c-55.797,0-101.19-45.393-101.19-101.19 V187.394H381.9v18.73c0,3.056,1.651,5.874,4.316,7.37c2.664,1.493,5.93,1.434,8.539-0.158c11.856-7.237,25.56-10.484,39.62-9.402 c34.702,2.681,60.808,31.002,60.722,65.875c-0.088,36.253-29.638,65.747-65.871,65.747c-12.287,0-24.283-3.411-34.689-9.866 c-2.491-1.544-5.604-1.687-8.226-0.381c-2.622,1.307-4.38,3.88-4.645,6.798c-0.64,7.044-2.024,14.025-4.112,20.752 c-1.384,4.458,1.108,9.192,5.565,10.577c4.459,1.381,9.194-1.109,10.577-5.565c1.226-3.949,2.242-7.971,3.047-12.041 c10.218,4.358,21.254,6.628,32.481,6.628c45.53,0,82.661-37.057,82.773-82.607c0.052-21.063-7.703-41.11-21.835-56.448 c-14.145-15.352-33.495-24.699-54.488-26.32c-12.753-0.99-25.278,0.883-36.873,5.436v-11.123c0-6.013-4.893-10.905-10.905-10.905 H98.711c-6.013,0-10.905,4.893-10.905,10.905v141.436c0,42.886,22.981,80.502,57.273,101.19H8.451 c-4.668,0-8.451,3.783-8.451,8.451c0,32.167,26.17,58.336,58.336,58.336h385.296c15.581,0,30.231-6.068,41.249-17.087 c11.018-11.018,17.087-25.667,17.086-41.249C501.966,427.805,498.181,424.022,493.515,424.022z M472.928,461.771 c-7.826,7.826-18.231,12.137-29.298,12.137H58.336c-19.951,0-36.654-14.175-40.567-32.983h188.13h74.954h203.355 C482.589,448.768,478.723,455.977,472.928,461.771z"/> </g> </g> <g> <g> <path d="M426.599,226.322c-24.232,0-43.945,19.713-43.945,43.945c0,24.232,19.713,43.945,43.945,43.945 s43.945-19.713,43.945-43.945C470.544,246.036,450.83,226.322,426.599,226.322z M426.599,297.311 c-14.911,0-27.043-12.132-27.043-27.043c0-14.911,12.131-27.043,27.043-27.043c14.911,0,27.043,12.132,27.043,27.043 C453.642,285.179,441.509,297.311,426.599,297.311z"/> </g> </g> <g> <g> <path d="M130.891,21.19c-4.668,0-8.451,3.783-8.451,8.451V133.87c0,4.667,3.784,8.451,8.451,8.451 c4.668,0,8.451-3.783,8.451-8.451V29.641C139.342,24.973,135.559,21.19,130.891,21.19z"/> </g> </g> <g> <g> <path d="M199.625,42.406c-4.668,0-8.451,3.783-8.451,8.451v83.014c0,4.667,3.784,8.451,8.451,8.451 c4.668,0,8.451-3.783,8.451-8.451V50.857C208.077,46.188,204.294,42.406,199.625,42.406z"/> </g> </g> </g>
</svg>